<svg fill="#EFCE2B" xmlns="http://www.w3.org/2000/svg"	viewBox="224 -60 528 200">
<g>
	<path d="M257.6,77.8c-1.7,9.8-3.4,19.6-5.1,29.5c-4,0-7.9,0-11.8,0c-2.3-16.7-4.6-33.5-6.9-50.3c3.2,0,6.3,0,9.5,0
		c1.5,11.4,2.9,22.8,4.4,34.2c0.1,0,0.1,0,0.2,0c1.8-11.4,3.6-22.8,5.4-34.2c3.6,0,7.1,0,10.9,0c1.1,11.4,2.3,22.8,3.4,34.2
		c0.1,0,0.1,0,0.2,0c2.3-11.4,4.5-22.7,6.8-34.2c3.1,0,6.1,0,9.4,0c-3.5,16.8-7.1,33.5-10.6,50.3c-4,0-8.1,0-12.3,0
		C259.8,97.5,258.7,87.7,257.6,77.8z"/>
	<path d="M517.3,112.4c2.2,0.7,4.6,1.7,7.1,2.3c4,0.9,6.5-0.8,7.4-4.8c0.2-0.9,0.3-1.8,0.4-2.7c0.1-1.2,0-2.5,0-4
		c-0.4,0.5-0.7,0.8-1,1.1c-3.9,4.9-10.1,4.6-13.6-0.5c-2.1-3-2.8-6.4-3-10c-0.4-4.8,0-9.6,1.7-14.2c3-8.3,8.5-11.7,17.3-10.8
		c1.2,0.1,2.3,0.3,3.4,0.5c1.9,0.4,3.7,0.9,5.5,1.4c0,1.7,0,3.4,0,5c-0.3,11.5-0.7,23.1-1,34.6c-0.1,2.8-0.2,5.7-1.3,8.4
		c-1.7,4.5-5.3,6.9-10.6,6.8c-3.9-0.1-7.7-0.8-11.4-2.2c-0.3-0.1-0.8-0.5-0.8-0.8C517.3,119,517.3,115.6,517.3,112.4z M533.2,83.4
		c-0.1,0-0.2,0-0.3,0c0-0.8-0.1-1.7,0-2.5c0.1-0.7-0.2-0.9-0.8-1.1c-3.1-0.8-5.8,0.5-7.2,3.6c-1.2,2.6-1.6,5.3-1.2,8.1
		c0.2,1.5,0.6,3.1,1.4,4.3c1.3,2,3.4,2,4.9,0.1c0.7-0.8,1.3-1.8,1.5-2.8C532.3,89.9,532.7,86.6,533.2,83.4z"/>
	<path d="M446.8,107.4c-1.1-7.2-2.2-14.4-3.3-21.9c-1.7,7.5-3.3,14.6-4.9,21.8c-2.9,0-5.8,0-8.7,0
		c-2.6-12.5-5.2-25-7.9-37.7c0.6,0,1.3,0,1.9,0c1.6,0,3.1,0,4.7,0c2.2,0,2.2,0,2.6,2.1c1.1,6.7,2.3,13.5,3.5,20.5
		c1.7-7.7,3.3-15.1,4.9-22.6c3.1,0,6.1,0,9.2,0c1.2,7.3,2.3,14.6,3.5,21.9c0.1,0,0.2,0,0.2,0c0.4-1.6,0.7-3.2,1.1-4.8
		c1.2-5.4,2.4-10.8,3.5-16.1c0.2-0.9,0.5-1.1,1.3-1.1c2.5,0.1,5,0,7.7,0c-0.7,2.5-1.3,4.8-1.9,7.1c-2.6,9.8-5.3,19.7-7.9,29.5
		c-0.3,1-0.6,1.2-1.6,1.2C452.1,107.3,449.5,107.4,446.8,107.4z"/>
	<path d="M371.6,57c3.4,0,6.5,0,9.6,0c-0.6,16.8-1.1,33.5-1.7,50.3c-2.7,0-5.5,0-8.5,0c0-1.3,0-2.7,0-4.3
		c-0.5,0.7-0.9,1.2-1.3,1.7c-3.6,4.8-9.7,4.9-13.4,0.2c-2.3-2.9-3.2-6.4-3.6-10c-0.7-6.3,0-12.5,2.6-18.3c1.8-4.1,4.7-7.1,9.3-7.7
		c1.6-0.2,3.3,0,5,0c0.6,0,1.2,0.2,2,0.3C371.6,65,371.6,61.1,371.6,57z M371.3,83.8c-0.1,0-0.1,0-0.2,0c0-1.3,0-2.6,0-3.9
		c0-0.8-0.3-1.1-1-1.2c-3-0.5-5.4,0.7-6.8,3.5c-1.5,3.2-1.9,6.6-1.5,10.2c0.2,1.6,0.6,3.1,1.8,4.2c1.3,1.3,3,1.4,4.2,0
		c0.9-1,1.7-2.2,1.9-3.5C370.5,89.9,370.8,86.8,371.3,83.8z"/>
	<path d="M510,107.3c-3.2,0-6.3,0-9.5,0c0-0.4,0-0.8,0-1.1c0.2-5.6,0.5-11.3,0.6-16.9c0-1.8-0.2-3.7-0.4-5.5
		c0-0.5-0.3-0.9-0.5-1.3c-1.2-2.2-3.4-2.5-5.1-0.7c-1.5,1.6-2.2,3.6-2.3,5.7c-0.4,5.8-0.7,11.6-1,17.3c0,0.8,0,1.6,0,2.5
		c-3.3,0-6.5,0-9.5,0c0.5-12.5,1-25,1.4-37.6c3,0,6.1,0,9.2,0c0,1.5,0,2.9,0,4.5c0.4-0.6,0.7-1.1,1.1-1.6c2.7-3.9,8.2-5.2,12.3-2.8
		c2.9,1.6,4.1,4.4,4.2,7.5c0.2,3.9,0.1,7.9,0,11.9c-0.1,5.8-0.3,11.6-0.5,17.4C510,106.7,510,107,510,107.3z"/>
	<path d="M314.1,88.3c0,4.1-0.7,8.5-2.7,12.5c-2.5,4.9-6.5,7.7-12.1,7.5c-5.6-0.2-9.5-3.1-11.6-8.2
		c-3.1-7.7-3-15.5,0.4-23.1c1.8-4.1,4.9-6.9,9.3-8c5.7-1.4,11.3,1.3,14.2,6.8C313.6,79.7,314.1,83.8,314.1,88.3z M294.8,89.8
		c0.5,1.9,0.9,3.8,1.5,5.6c0.5,1.3,1.6,2.3,3.2,2.4c1.6,0,2.8-0.8,3.4-2.2c2.1-4.3,2.3-8.8,0.7-13.4c-0.5-1.5-1.7-2.6-3.4-2.6
		c-1.7-0.1-2.7,0.9-3.5,2.3c-0.2,0.4-0.5,0.8-0.6,1.2C295.7,85.3,295.3,87.5,294.8,89.8z"/>
	<path d="M419,69.1c-2-0.7-3.9-1.4-5.9-1.9c-1.8-0.5-3.5,0-4.6,1.6c-1.1,1.5-0.9,3.1,0,4.5c1.7,2.6,3.7,5.1,5.6,7.6
		c2.7,3.6,5,7.3,5.1,12c0.1,3.6-0.6,7.1-2.5,10.2c-1.7,2.7-4.2,4.4-7.4,5c-4.3,0.7-8.3-0.4-12.3-1.5c-0.2-4.2-0.4-8.3-0.7-12.6
		c0.8,0.5,1.4,1,2.1,1.2c1.9,0.7,3.9,1.7,5.9,1.9c3.9,0.5,5.9-2.5,4.2-6.1c-0.6-1.3-1.6-2.5-2.4-3.7c-2-3-4.4-5.7-6.1-8.9
		c-3.2-5.7-3-11.6,0-17.3c1.7-3.2,4.5-4.9,8.1-5.2c3.3-0.3,6.6,0.2,9.8,1.2c0.3,0.1,0.7,0.5,0.7,0.7C418.8,61.7,418.9,65.5,419,69.1
		z"/>
	<path d="M347.8,107.3c-3.2,0-6.3,0-9.4,0c0.5-16.8,1-33.5,1.5-50.3c3.1,0,6.3,0,9.5,0
		C348.8,73.7,348.3,90.5,347.8,107.3z"/>
	<path d="M326.9,107.3c-3.2,0-6.3,0-9.3,0c0.4-12.5,0.7-25,1.1-37.6c2.7,0,5.7,0,8.7,0c0,1.1,0,2.2,0,3.3
		c0.1,0,0.1,0.1,0.2,0.1c0.4-0.6,0.7-1.1,1.1-1.7c1.4-1.9,3.2-3.2,5.7-2.8c0.5,0.1,0.9,0.2,1,0.9c0.1,3.7,0.2,7.4,0.3,11
		c0,0.2,0,0.3-0.1,0.5c-0.2,0-0.4,0-0.6-0.1c-2.9-0.8-4.9,0-6.3,2.7c-1.2,2.4-1.5,5-1.6,7.6c-0.1,5-0.2,9.9-0.2,14.9
		C327,106.6,327,106.9,326.9,107.3z"/>
	<path d="M467.3,107.3c0.4-12.5,0.8-25,1.2-37.6c3.1,0,6.3,0,9.3,0c-0.3,12.5-0.5,25-0.8,37.6
		C473.9,107.3,470.6,107.3,467.3,107.3z"/>
	<path class="st0" d="M468.7,56c3.2,0,6.2,0,9.2,0c0,3,0,5.8,0,8.8c-3.2,0-6.2,0-9.2,0C468.7,61.9,468.7,59,468.7,56z"/>
</g>
<g>
	<path d="M602.4,111.6c0.5-18.6,1.1-37,1.6-55.6c0.6,0,1.3,0,2,0c5.3-0.1,10.5-0.2,15.8-0.3c1.2,0,2.4,0.1,3.6,0.3
		c5.3,0.7,8.5,4,10.6,8.6c2,4.5,2.8,9.3,3,14.2c0.3,7-0.4,13.8-2.8,20.4c-0.4,1.2-1,2.4-1.6,3.5c-2.9,5.6-7.5,8.7-13.9,8.8
		c-2.9,0-5.8,0-8.7,0C608.8,111.6,605.5,111.6,602.4,111.6z M613.4,99.3c0.7,0.1,1.2,0.1,1.7,0.2c6.1,0.5,9.5-1.7,11.3-7.6
		c1.2-3.9,1.5-8,1.3-12.1c-0.1-2.6-0.6-5.2-1.7-7.7c-0.8-1.8-2-3.3-4-3.9c-2.5-0.8-5.1-0.5-7.7-0.2C614,78.5,613.7,88.8,613.4,99.3z
		"/>
	<path d="M639.6,96.8c1,0.5,1.9,1.1,2.8,1.5c1.1,0.5,2.2,0.9,3.4,1.2c3.5,0.8,6-0.6,6.9-4.1c0.6-2.1,0.9-4.4,1-6.6
		c0.3-6.3,0.4-12.7,0.6-19c0.1-4.2,0.1-8.5,0.1-12.7c0-0.3,0-0.6,0.1-1c3.8,0,7.5,0,11.3,0c0,0.9,0,1.8,0,2.7
		c-0.4,12.4-0.8,24.8-1.3,37.1c-0.1,2.8-0.4,5.8-1.2,8.5c-1.6,5.2-7,8.5-12.7,8.3c-3.3-0.2-6.5-0.8-9.6-2c-0.4-0.1-0.9-0.6-0.9-1
		c-0.2-4.1-0.4-8.3-0.6-12.4C639.4,97.2,639.5,97,639.6,96.8z"/>
	<path d="M691.4,81.7c-1.9-1-3.8-1.9-6.1-1.8c-1.3,0-2.8,0.1-3.4,1.5c-0.7,1.5,0,2.8,1,3.9c1.6,1.8,3.2,3.6,4.7,5.4
		c3.4,4.3,4.2,9.2,2.7,14.5c-1.5,5.2-6.4,8.2-12.3,7.5c-2.4-0.3-4.8-1-7.1-1.6c-0.3-0.1-0.8-0.5-0.8-0.8c-0.3-3.8-0.5-7.6-0.7-11.6
		c0.8,0.4,1.4,0.8,2.1,1.2c1.9,1,3.8,2,6.1,1.8c1.1-0.1,2.1-0.4,2.7-1.5c0.6-1.2,0.4-2.3-0.4-3.3c-1.4-1.8-2.9-3.6-4.4-5.3
		c-3.8-4.4-5.1-9.3-3.7-14.9c1.3-5.2,4.5-7.9,9.9-7.7c3.2,0.1,6.3,0.7,9.8,1.1c0,2.2,0,4.1,0,6C691.4,77.9,691.4,79.8,691.4,81.7z"
		/>
</g>
<path fill="#000000" d="M646.3-50c-19.7,0-38,5.7-54.7,17.5c-18,12.7-28.8,30-33.2,50.8c-1.1,4.9-1.6,10-2.1,15c-0.3,3.2,0.2,19.5,0.2,22.7
	c-3.9,8.6-5.8,11.1-6.1,23.2c-0.1,5.9,0.1,11.8,2.3,17.4c5.3,13.5,11.4,22.1,26,26c1.1,0.3,2.1,1.1,3.1,1.7c0.9,0.5,1.7,1.1,2.7,1.4
	c3.7,1.1,7.5,1.1,11.2-0.2c1.7-0.6,2.6-1.7,2.6-3.6c0-25.5-0.1-51,0-76.6c0-1.6-0.8-2.5-2.1-3c-4.6-1.9-9.2-2-13.7,0.3
	c-0.8,0.4-1.6,0.8-2.4,1c-6.7,1.4-9.1,2.2-13.1,5.2c-0.4-5.2,0-11,0-14.2c1.1-0.1,2.1-0.2,3.1-0.3c0.7-4.6,1-9.2,2.1-13.6
	c6.6-26.2,22.9-44.5,49.8-53.8c7.9-2.7,16-3.5,24.3-3.3c0,0,16.1,0.6,24,3.3c26.9,9.3,43.2,27.6,49.8,53.8c1.1,4.4,1.4,9,2.1,13.6
	c0.9,0.1,1.9,0.2,3.1,0.3c0,3.2,0.4,9,0,14.2c-4-3-6.4-3.7-13.1-5.2c-0.8-0.2-1.6-0.6-2.4-1c-4.5-2.3-9.1-2.2-13.7-0.3
	c-1.3,0.5-2.1,1.4-2.1,3c0.1,25.5,0.1,51,0,76.6c0,1.9,0.9,3,2.6,3.6c3.7,1.3,7.5,1.4,11.2,0.2c0.9-0.3,1.8-0.9,2.7-1.4
	c1-0.6,2-1.4,3.1-1.7c14.7-3.9,20.7-12.5,26-26c2.2-5.6,2.4-11.4,2.3-17.4c-0.2-12.1-2.2-14.6-6.1-23.2c0-3.2,0.5-19.5,0.2-22.7
	c-0.4-5-1-10.1-2.1-15c-4.4-20.8-15.2-38.1-33.2-50.8C684-44.3,666-50,646.3-50z"/>
</svg>
